<svg width="24" height="20" viewBox="0 0 24 20" fill="none" xmlns="http://www.w3.org/2000/svg">
<g clip-path="url(#clip0_101_157)">
<path d="M8.4 9.63934C11.0512 9.63934 13.2 7.48179 13.2 4.81967C13.2 2.15756 11.0512 0 8.4 0C5.74875 0 3.6 2.15756 3.6 4.81967C3.6 7.48179 5.74875 9.63934 8.4 9.63934ZM11.76 10.8443H11.1337C10.3012 11.2283 9.375 11.4467 8.4 11.4467C7.425 11.4467 6.5025 11.2283 5.66625 10.8443H5.04C2.2575 10.8443 0 13.111 0 15.9049V17.4713C0 18.4691 0.80625 19.2787 1.8 19.2787H12.1087C12.0187 19.0226 11.9812 18.7515 12.0112 18.4767L12.2662 16.1836L12.3112 15.7656L12.6075 15.4681L15.5062 12.5575C14.5875 11.5145 13.2562 10.8443 11.76 10.8443ZM13.4587 16.3153L13.2037 18.6122C13.1625 18.9963 13.485 19.3201 13.8637 19.2749L16.1475 19.0189L21.3187 13.8264L18.63 11.1267L13.4587 16.3153ZM23.7375 10.1251L22.3162 8.698C21.9675 8.34782 21.3975 8.34782 21.0487 8.698L19.6312 10.1213L19.4775 10.2757L22.17 12.9755L23.7375 11.4015C24.0862 11.0476 24.0862 10.479 23.7375 10.1251Z" fill="black"/>
</g>
<defs>
<clipPath id="clip0_101_157">
<rect width="24" height="19.2787" fill="white"/>
</clipPath>
</defs>
</svg>
