<svg width="48" height="48" viewBox="0 0 48 48" fill="none" xmlns="http://www.w3.org/2000/svg">
<path d="M42 26V32C42 34.1217 41.1571 36.1566 39.6569 37.6569C38.1566 39.1571 36.1217 40 34 40H14C11.8783 40 9.84344 39.1571 8.34315 37.6569C6.84285 36.1566 6 34.1217 6 32V27.2C6 26.8817 6.12643 26.5765 6.35147 26.3515C6.57652 26.1264 6.88174 26 7.2 26H42ZM42 26V14C42 11.8783 41.1571 9.84344 39.6569 8.34315C38.1566 6.84285 36.1217 6 34 6H24M32 40L34 44M16 40L14 44" stroke="black" stroke-width="1.5" stroke-linecap="round" stroke-linejoin="round"/>
<path d="M30.7998 16H17.1998C16.5378 16 16.0078 15.464 16.0798 14.804C16.3718 12.15 17.7258 6 23.9998 6C30.2738 6 31.6278 12.15 31.9198 14.804C31.9918 15.464 31.4618 16 30.7998 16Z" stroke="black" stroke-width="1.5" stroke-linecap="round" stroke-linejoin="round"/>
</svg>
