<svg width="24" height="24" viewBox="0 0 24 24" fill="none" xmlns="http://www.w3.org/2000/svg">
<g clip-path="url(#clip0_129_204)">
<path d="M12 21.0732C9.59365 21.0732 7.28585 20.1172 5.5843 18.4157C3.88276 16.7142 2.92684 14.4064 2.92684 12H8.12506e-06C8.12506e-06 18.6263 5.37366 24 12 24V21.0732ZM12 2.92683C14.4064 2.92683 16.7141 3.88275 18.4157 5.5843C20.1172 7.28585 21.0732 9.59365 21.0732 12H24C24 5.37249 18.6263 0 12 0V2.92683ZM2.92684 12C2.92684 9.49463 3.94069 7.2281 5.58439 5.58439L3.51454 3.51454C2.3988 4.6278 1.51396 5.9505 0.910831 7.40669C0.307704 8.86287 -0.00182845 10.4239 8.12506e-06 12H2.92684ZM5.58439 5.58439C6.42582 4.74041 7.42581 4.07112 8.52685 3.61504C9.62789 3.15895 10.8082 2.92506 12 2.92683V0C8.68683 0 5.68508 1.34517 3.51454 3.51454L5.58439 5.58439ZM3.51454 5.58439L18.4156 20.4855L20.4855 18.4156L5.58439 3.51454L3.51454 5.58439ZM21.0732 12C21.0732 14.5054 20.0593 16.7719 18.4156 18.4156L20.4855 20.4855C21.6013 19.3722 22.4861 18.0495 23.0893 16.5934C23.6924 15.1372 24.0019 13.5762 24 12H21.0732ZM18.4156 18.4156C17.5742 19.2596 16.5742 19.9289 15.4731 20.385C14.3721 20.841 13.1918 21.0749 12 21.0732V24C15.3132 24 18.3149 22.6548 20.4855 20.4855L18.4156 18.4156Z" fill="#DC3545"/>
</g>
<defs>
<clipPath id="clip0_129_204">
<rect width="24" height="24" fill="white"/>
</clipPath>
</defs>
</svg>
