<svg width="48" height="48" viewBox="0 0 48 48" fill="none" xmlns="http://www.w3.org/2000/svg">
<path d="M30.2969 14.4109H36.9319C37.0289 15.9949 38.3629 17.2339 39.9669 17.2339C40.0789 17.2339 40.1919 17.2339 40.2889 17.2269V30.6749C40.1919 30.6669 40.0789 30.6669 39.9669 30.6669C38.3559 30.6669 37.0069 31.9289 36.9319 33.5279H30.2969M17.3019 33.5279H11.0389C10.9709 31.9279 9.62894 30.6679 8.00294 30.6679C7.89827 30.6666 7.80094 30.6689 7.71094 30.6749V17.2269C7.80094 17.2329 7.89827 17.2352 8.00294 17.2339C9.62294 17.2339 10.9559 15.9949 11.0379 14.4109H17.3019" stroke="black" stroke-linecap="round" stroke-linejoin="round"/>
<path d="M30.2968 13.0049V34.9949C30.2968 35.0739 30.2818 35.1449 30.2598 35.2179C30.2071 35.3642 30.1103 35.4905 29.9828 35.5793C29.8552 35.6682 29.7032 35.7152 29.5478 35.7139H18.0498C17.8943 35.7152 17.7423 35.6682 17.6148 35.5793C17.4872 35.4905 17.3904 35.3642 17.3378 35.2179C17.3134 35.1461 17.301 35.0708 17.3008 34.9949V13.0049C17.3008 12.9259 17.3158 12.8549 17.3378 12.7819C17.3904 12.6356 17.4872 12.5093 17.6148 12.4205C17.7423 12.3316 17.8943 12.2846 18.0498 12.2859H29.5468C29.7022 12.2846 29.8542 12.3316 29.9818 12.4205C30.1093 12.5093 30.2061 12.6356 30.2588 12.7819C30.2831 12.8538 30.2956 12.9291 30.2958 13.0049" stroke="black" stroke-linecap="round" stroke-linejoin="round"/>
<path d="M18.04 35.7139H6.25C6.15143 35.7139 6.05382 35.6945 5.96276 35.6567C5.8717 35.619 5.78897 35.5636 5.71932 35.4939C5.64966 35.4241 5.59444 35.3413 5.5568 35.2502C5.51917 35.1591 5.49987 35.0615 5.5 34.9629V13.0369C5.5 12.838 5.57902 12.6472 5.71967 12.5066C5.86032 12.3659 6.05109 12.2869 6.25 12.2869H18.05M29.548 12.2859H41.75C41.8485 12.286 41.946 12.3055 42.0369 12.3434C42.1279 12.3812 42.2105 12.4365 42.28 12.5063C42.3496 12.576 42.4047 12.6588 42.4423 12.7498C42.4799 12.8408 42.4991 12.9384 42.499 13.0369V34.9629C42.499 35.1618 42.42 35.3526 42.2793 35.4932C42.1387 35.6339 41.9479 35.7129 41.749 35.7129H29.56" stroke="black" stroke-linecap="round" stroke-linejoin="round"/>
<path d="M30.297 17.678C34.288 17.702 35.906 21.661 35.906 23.741C35.906 25.839 34.038 29.869 30.297 29.825M17.302 29.825C12.874 29.825 11.667 25.525 11.667 23.741C11.667 21.811 12.677 17.678 17.302 17.678M22.258 27.097C22.699 27.672 23.253 27.887 24.023 27.887H25.089C26.081 27.887 26.885 27.08 26.885 26.087C26.885 25.092 26.081 24.287 25.089 24.287H23.91C23.4333 24.2859 22.9765 24.0958 22.6398 23.7584C22.3031 23.4209 22.114 22.9637 22.114 22.487C22.114 21.492 22.918 20.687 23.91 20.687H24.976C25.746 20.687 26.3 20.9 26.741 21.475M24.5 20.686V19.786M24.5 28.786V27.886" stroke="black" stroke-linecap="round" stroke-linejoin="round"/>
</svg>
